<?xml version="1.0" encoding="utf-8"?>
<!-- Generator: Adobe Illustrator 26.4.1, SVG Export Plug-In . SVG Version: 6.00 Build 0)  -->
<svg version="1.1" id="Layer_1" xmlns="http://www.w3.org/2000/svg" xmlns:xlink="http://www.w3.org/1999/xlink" x="0px" y="0px"
	 viewBox="0 0 320 320" style="enable-background:new 0 0 320 320;" xml:space="preserve">
<style type="text/css">
	.st0{fill:#FF001F;}
</style>
<g>
	<g>
		<path class="st0" d="M160,66.5c-51.6,0-93.5,41.9-93.5,93.5s41.9,93.5,93.5,93.5s93.5-41.9,93.5-93.5S211.6,66.5,160,66.5
			 M160,99.8c33.2,0,60.2,27,60.2,60.2s-27,60.2-60.2,60.2s-60.2-27-60.2-60.2S126.8,99.8,160,99.8"/>
		<path class="st0" d="M195.8,137.3c0,12.7-10.3,23-23,23s-23-10.3-23-23s10.3-23,23-23S195.8,124.6,195.8,137.3"/>
	</g>
</g>
</svg>
